<svg xmlns="http://www.w3.org/2000/svg" xmlns:xlink="http://www.w3.org/1999/xlink" contentStyleType="text/css" height="1292px" preserveAspectRatio="none" style="width:629px;height:1292px;background:#FFFFFF;" version="1.1" viewBox="0 0 629 1292" width="629px" zoomAndPan="magnify"><defs/><g><rect fill="none" height="538.3906" style="stroke:#000000;stroke-width:1.5;" width="343.2861" x="158.4282" y="98.2969"/><rect fill="none" height="337.5938" style="stroke:#000000;stroke-width:1.5;" width="613.9966" x="10" y="650.6875"/><rect fill="none" height="191.9297" style="stroke:#000000;stroke-width:1.5;" width="343.2861" x="158.4282" y="1002.2813"/><line style="stroke:#181818;stroke-width:0.5;stroke-dasharray:5.0,5.0;" x1="66" x2="66" y1="81.2969" y2="1211.2109"/><line style="stroke:#181818;stroke-width:0.5;stroke-dasharray:5.0,5.0;" x1="215.4282" x2="215.4282" y1="81.2969" y2="1211.2109"/><line style="stroke:#181818;stroke-width:0.5;stroke-dasharray:5.0,5.0;" x1="397.4722" x2="397.4722" y1="81.2969" y2="1211.2109"/><line style="stroke:#181818;stroke-width:0.5;stroke-dasharray:5.0,5.0;" x1="463.5796" x2="463.5796" y1="81.2969" y2="1211.2109"/><line style="stroke:#181818;stroke-width:0.5;stroke-dasharray:5.0,5.0;" x1="566.4077" x2="566.4077" y1="81.2969" y2="1211.2109"/><text fill="#000000" font-family="sans-serif" font-size="14" lengthAdjust="spacing" textLength="86.8916" x="20" y="77.9951">SettleServer</text><ellipse cx="66.4458" cy="49" fill="#E2E2F0" rx="12" ry="12" style="stroke:#181818;stroke-width:0.5;"/><line style="stroke:#181818;stroke-width:0.5;" x1="54.4458" x2="78.4458" y1="63" y2="63"/><text fill="#000000" font-family="sans-serif" font-size="14" lengthAdjust="spacing" textLength="86.8916" x="20" y="1223.2061">SettleServer</text><ellipse cx="66.4458" cy="1242.5078" fill="#E2E2F0" rx="12" ry="12" style="stroke:#181818;stroke-width:0.5;"/><line style="stroke:#181818;stroke-width:0.5;" x1="54.4458" x2="78.4458" y1="1256.5078" y2="1256.5078"/><text fill="#000000" font-family="sans-serif" font-size="14" lengthAdjust="spacing" textLength="88.6279" x="168.4282" y="77.9951">MatchServer</text><ellipse cx="215.7422" cy="49" fill="#FFFF00" rx="12" ry="12" style="stroke:#181818;stroke-width:0.5;"/><line style="stroke:#181818;stroke-width:0.5;" x1="203.7422" x2="227.7422" y1="63" y2="63"/><text fill="#000000" font-family="sans-serif" font-size="14" lengthAdjust="spacing" textLength="88.6279" x="168.4282" y="1223.2061">MatchServer</text><ellipse cx="215.7422" cy="1242.5078" fill="#FFFF00" rx="12" ry="12" style="stroke:#181818;stroke-width:0.5;"/><line style="stroke:#181818;stroke-width:0.5;" x1="203.7422" x2="227.7422" y1="1256.5078" y2="1256.5078"/><text fill="#000000" font-family="sans-serif" font-size="14" lengthAdjust="spacing" textLength="50.1074" x="369.4722" y="77.9951">ClientA</text><ellipse cx="397.5259" cy="13.5" fill="#0000FF" rx="8" ry="8" style="stroke:#181818;stroke-width:0.5;"/><path d="M397.5259,21.5 L397.5259,48.5 M384.5259,29.5 L410.5259,29.5 M397.5259,48.5 L384.5259,63.5 M397.5259,48.5 L410.5259,63.5 " fill="none" style="stroke:#181818;stroke-width:0.5;"/><text fill="#000000" font-family="sans-serif" font-size="14" lengthAdjust="spacing" textLength="50.1074" x="369.4722" y="1223.2061">ClientA</text><ellipse cx="397.5259" cy="1235.0078" fill="#0000FF" rx="8" ry="8" style="stroke:#181818;stroke-width:0.5;"/><path d="M397.5259,1243.0078 L397.5259,1270.0078 M384.5259,1251.0078 L410.5259,1251.0078 M397.5259,1270.0078 L384.5259,1285.0078 M397.5259,1270.0078 L410.5259,1285.0078 " fill="none" style="stroke:#181818;stroke-width:0.5;"/><text fill="#000000" font-family="sans-serif" font-size="14" lengthAdjust="spacing" textLength="50.1348" x="435.5796" y="77.9951">ClientB</text><ellipse cx="463.647" cy="13.5" fill="#008000" rx="8" ry="8" style="stroke:#181818;stroke-width:0.5;"/><path d="M463.647,21.5 L463.647,48.5 M450.647,29.5 L476.647,29.5 M463.647,48.5 L450.647,63.5 M463.647,48.5 L476.647,63.5 " fill="none" style="stroke:#181818;stroke-width:0.5;"/><text fill="#000000" font-family="sans-serif" font-size="14" lengthAdjust="spacing" textLength="50.1348" x="435.5796" y="1223.2061">ClientB</text><ellipse cx="463.647" cy="1235.0078" fill="#008000" rx="8" ry="8" style="stroke:#181818;stroke-width:0.5;"/><path d="M463.647,1243.0078 L463.647,1270.0078 M450.647,1251.0078 L476.647,1251.0078 M463.647,1270.0078 L450.647,1285.0078 M463.647,1270.0078 L476.647,1285.0078 " fill="none" style="stroke:#181818;stroke-width:0.5;"/><text fill="#000000" font-family="sans-serif" font-size="14" lengthAdjust="spacing" textLength="87.5889" x="520.4077" y="77.9951">GameServer</text><ellipse cx="567.2021" cy="49" fill="#FFA500" rx="12" ry="12" style="stroke:#181818;stroke-width:0.5;"/><line style="stroke:#181818;stroke-width:0.5;" x1="555.2021" x2="579.2021" y1="63" y2="63"/><text fill="#000000" font-family="sans-serif" font-size="14" lengthAdjust="spacing" textLength="87.5889" x="520.4077" y="1223.2061">GameServer</text><ellipse cx="567.2021" cy="1242.5078" fill="#FFA500" rx="12" ry="12" style="stroke:#181818;stroke-width:0.5;"/><line style="stroke:#181818;stroke-width:0.5;" x1="555.2021" x2="579.2021" y1="1256.5078" y2="1256.5078"/><path d="M158.4282,98.2969 L271.9385,98.2969 L271.9385,105.4297 L261.9385,115.4297 L158.4282,115.4297 L158.4282,98.2969 " fill="#EEEEEE" style="stroke:#000000;stroke-width:1.5;"/><rect fill="none" height="538.3906" style="stroke:#000000;stroke-width:1.5;" width="343.2861" x="158.4282" y="98.2969"/><text fill="#000000" font-family="sans-serif" font-size="13" font-weight="bold" lengthAdjust="spacing" textLength="68.5103" x="173.4282" y="111.3638">matching</text><polygon fill="#181818" points="226.7422,132.5625,216.7422,136.5625,226.7422,140.5625,222.7422,136.5625" style="stroke:#181818;stroke-width:1.0;"/><line style="stroke:#181818;stroke-width:1.0;" x1="220.7422" x2="396.5259" y1="136.5625" y2="136.5625"/><text fill="#000000" font-family="sans-serif" font-size="13" lengthAdjust="spacing" textLength="83.3447" x="232.7422" y="131.4966">CreateGroup</text><polygon fill="#181818" points="385.5259,161.6953,395.5259,165.6953,385.5259,169.6953,389.5259,165.6953" style="stroke:#181818;stroke-width:1.0;"/><line style="stroke:#181818;stroke-width:1.0;stroke-dasharray:2.0,2.0;" x1="215.7422" x2="391.5259" y1="165.6953" y2="165.6953"/><text fill="#000000" font-family="sans-serif" font-size="13" lengthAdjust="spacing" textLength="56.4053" x="222.7422" y="160.6294">group_id</text><polygon fill="#181818" points="226.7422,190.8281,216.7422,194.8281,226.7422,198.8281,222.7422,194.8281" style="stroke:#181818;stroke-width:1.0;"/><line style="stroke:#181818;stroke-width:1.0;" x1="220.7422" x2="396.5259" y1="194.8281" y2="194.8281"/><text fill="#000000" font-family="sans-serif" font-size="13" lengthAdjust="spacing" textLength="36.4736" x="232.7422" y="189.7622">Invite</text><polygon fill="#181818" points="451.647,219.9609,461.647,223.9609,451.647,227.9609,455.647,223.9609" style="stroke:#181818;stroke-width:1.0;"/><line style="stroke:#181818;stroke-width:1.0;stroke-dasharray:2.0,2.0;" x1="215.7422" x2="457.647" y1="223.9609" y2="223.9609"/><text fill="#000000" font-family="sans-serif" font-size="13" lengthAdjust="spacing" textLength="67.5645" x="222.7422" y="218.895">PushInvite</text><polygon fill="#181818" points="226.7422,249.0938,216.7422,253.0938,226.7422,257.0938,222.7422,253.0938" style="stroke:#181818;stroke-width:1.0;"/><line style="stroke:#181818;stroke-width:1.0;" x1="220.7422" x2="462.647" y1="253.0938" y2="253.0938"/><text fill="#000000" font-family="sans-serif" font-size="13" lengthAdjust="spacing" textLength="81.0088" x="232.7422" y="248.0278">AcceptInvite</text><polygon fill="#181818" points="226.7422,278.2266,216.7422,282.2266,226.7422,286.2266,222.7422,282.2266" style="stroke:#181818;stroke-width:1.0;"/><line style="stroke:#181818;stroke-width:1.0;" x1="220.7422" x2="462.647" y1="282.2266" y2="282.2266"/><text fill="#000000" font-family="sans-serif" font-size="13" lengthAdjust="spacing" textLength="74.7563" x="232.7422" y="277.1606">EnterGroup</text><polygon fill="#181818" points="385.5259,307.3594,395.5259,311.3594,385.5259,315.3594,389.5259,311.3594" style="stroke:#181818;stroke-width:1.0;"/><line style="stroke:#181818;stroke-width:1.0;stroke-dasharray:2.0,2.0;" x1="215.7422" x2="391.5259" y1="311.3594" y2="311.3594"/><text fill="#000000" font-family="sans-serif" font-size="13" lengthAdjust="spacing" textLength="95.5576" x="222.7422" y="306.2935">PushGroupInfo</text><polygon fill="#181818" points="451.647,336.4922,461.647,340.4922,451.647,344.4922,455.647,340.4922" style="stroke:#181818;stroke-width:1.0;"/><line style="stroke:#181818;stroke-width:1.0;stroke-dasharray:2.0,2.0;" x1="215.7422" x2="457.647" y1="340.4922" y2="340.4922"/><text fill="#000000" font-family="sans-serif" font-size="13" lengthAdjust="spacing" textLength="95.5576" x="222.7422" y="335.4263">PushGroupInfo</text><polygon fill="#181818" points="226.7422,365.625,216.7422,369.625,226.7422,373.625,222.7422,369.625" style="stroke:#181818;stroke-width:1.0;"/><line style="stroke:#181818;stroke-width:1.0;" x1="220.7422" x2="396.5259" y1="369.625" y2="369.625"/><text fill="#000000" font-family="sans-serif" font-size="13" lengthAdjust="spacing" textLength="71.4238" x="232.7422" y="364.5591">StartMatch</text><polygon fill="#181818" points="385.5259,394.7578,395.5259,398.7578,385.5259,402.7578,389.5259,398.7578" style="stroke:#181818;stroke-width:1.0;"/><line style="stroke:#181818;stroke-width:1.0;stroke-dasharray:2.0,2.0;" x1="215.7422" x2="391.5259" y1="398.7578" y2="398.7578"/><text fill="#000000" font-family="sans-serif" font-size="13" lengthAdjust="spacing" textLength="62.8481" x="222.7422" y="393.6919">PushStart</text><polygon fill="#181818" points="451.647,423.8906,461.647,427.8906,451.647,431.8906,455.647,427.8906" style="stroke:#181818;stroke-width:1.0;"/><line style="stroke:#181818;stroke-width:1.0;stroke-dasharray:2.0,2.0;" x1="215.7422" x2="457.647" y1="427.8906" y2="427.8906"/><text fill="#000000" font-family="sans-serif" font-size="13" lengthAdjust="spacing" textLength="62.8481" x="222.7422" y="422.8247">PushStart</text><polygon fill="#181818" points="226.7422,453.0234,216.7422,457.0234,226.7422,461.0234,222.7422,457.0234" style="stroke:#181818;stroke-width:1.0;"/><line style="stroke:#181818;stroke-width:1.0;" x1="220.7422" x2="396.5259" y1="457.0234" y2="457.0234"/><text fill="#000000" font-family="sans-serif" font-size="13" lengthAdjust="spacing" textLength="69.9829" x="232.7422" y="451.9575">UploadAttr</text><polygon fill="#181818" points="226.7422,482.1563,216.7422,486.1563,226.7422,490.1563,222.7422,486.1563" style="stroke:#181818;stroke-width:1.0;"/><line style="stroke:#181818;stroke-width:1.0;" x1="220.7422" x2="462.647" y1="486.1563" y2="486.1563"/><text fill="#000000" font-family="sans-serif" font-size="13" lengthAdjust="spacing" textLength="69.9829" x="232.7422" y="481.0903">UploadAttr</text><line style="stroke:#181818;stroke-width:1.0;" x1="215.7422" x2="257.7422" y1="515.2891" y2="515.2891"/><line style="stroke:#181818;stroke-width:1.0;" x1="257.7422" x2="257.7422" y1="515.2891" y2="528.2891"/><line style="stroke:#181818;stroke-width:1.0;" x1="216.7422" x2="257.7422" y1="528.2891" y2="528.2891"/><polygon fill="#181818" points="226.7422,524.2891,216.7422,528.2891,226.7422,532.2891,222.7422,528.2891" style="stroke:#181818;stroke-width:1.0;"/><text fill="#000000" font-family="sans-serif" font-size="13" lengthAdjust="spacing" textLength="123.8618" x="222.7422" y="510.2231">AddGroupToQueue</text><line style="stroke:#181818;stroke-width:1.0;" x1="215.7422" x2="257.7422" y1="557.4219" y2="557.4219"/><line style="stroke:#181818;stroke-width:1.0;" x1="257.7422" x2="257.7422" y1="557.4219" y2="570.4219"/><line style="stroke:#181818;stroke-width:1.0;" x1="216.7422" x2="257.7422" y1="570.4219" y2="570.4219"/><polygon fill="#181818" points="226.7422,566.4219,216.7422,570.4219,226.7422,574.4219,222.7422,570.4219" style="stroke:#181818;stroke-width:1.0;"/><text fill="#000000" font-family="sans-serif" font-size="13" lengthAdjust="spacing" textLength="126.2612" x="222.7422" y="552.356">HandleMatchResult</text><polygon fill="#181818" points="385.5259,595.5547,395.5259,599.5547,385.5259,603.5547,389.5259,599.5547" style="stroke:#181818;stroke-width:1.0;"/><line style="stroke:#181818;stroke-width:1.0;stroke-dasharray:2.0,2.0;" x1="215.7422" x2="391.5259" y1="599.5547" y2="599.5547"/><text fill="#000000" font-family="sans-serif" font-size="13" lengthAdjust="spacing" textLength="157.7837" x="222.7422" y="594.4888">PushMatchInfo(room_id)</text><polygon fill="#181818" points="451.647,624.6875,461.647,628.6875,451.647,632.6875,455.647,628.6875" style="stroke:#181818;stroke-width:1.0;"/><line style="stroke:#181818;stroke-width:1.0;stroke-dasharray:2.0,2.0;" x1="215.7422" x2="457.647" y1="628.6875" y2="628.6875"/><text fill="#000000" font-family="sans-serif" font-size="13" lengthAdjust="spacing" textLength="157.7837" x="222.7422" y="623.6216">PushMatchInfo(room_id)</text><path d="M10,650.6875 L111.0054,650.6875 L111.0054,657.8203 L101.0054,667.8203 L10,667.8203 L10,650.6875 " fill="#EEEEEE" style="stroke:#000000;stroke-width:1.5;"/><rect fill="none" height="337.5938" style="stroke:#000000;stroke-width:1.5;" width="613.9966" x="10" y="650.6875"/><text fill="#000000" font-family="sans-serif" font-size="13" font-weight="bold" lengthAdjust="spacing" textLength="56.0054" x="25" y="663.7544">Gaming</text><polygon fill="#181818" points="555.2021,684.9531,565.2021,688.9531,555.2021,692.9531,559.2021,688.9531" style="stroke:#181818;stroke-width:1.0;"/><line style="stroke:#181818;stroke-width:1.0;" x1="397.5259" x2="561.2021" y1="688.9531" y2="688.9531"/><text fill="#000000" font-family="sans-serif" font-size="13" lengthAdjust="spacing" textLength="29.0215" x="404.5259" y="683.8872">Bind</text><polygon fill="#181818" points="555.2021,714.0859,565.2021,718.0859,555.2021,722.0859,559.2021,718.0859" style="stroke:#181818;stroke-width:1.0;"/><line style="stroke:#181818;stroke-width:1.0;" x1="463.647" x2="561.2021" y1="718.0859" y2="718.0859"/><text fill="#000000" font-family="sans-serif" font-size="13" lengthAdjust="spacing" textLength="29.0215" x="470.647" y="713.02">Bind</text><polygon fill="#181818" points="555.2021,743.2188,565.2021,747.2188,555.2021,751.2188,559.2021,747.2188" style="stroke:#181818;stroke-width:1.0;"/><line style="stroke:#181818;stroke-width:1.0;" x1="397.5259" x2="561.2021" y1="747.2188" y2="747.2188"/><text fill="#000000" font-family="sans-serif" font-size="13" lengthAdjust="spacing" textLength="74.1914" x="404.5259" y="742.1528">SendFrame</text><polygon fill="#181818" points="555.2021,772.3516,565.2021,776.3516,555.2021,780.3516,559.2021,776.3516" style="stroke:#181818;stroke-width:1.0;"/><line style="stroke:#181818;stroke-width:1.0;" x1="463.647" x2="561.2021" y1="776.3516" y2="776.3516"/><text fill="#000000" font-family="sans-serif" font-size="13" lengthAdjust="spacing" textLength="74.1914" x="470.647" y="771.2856">SendFrame</text><polygon fill="#181818" points="408.5259,801.4844,398.5259,805.4844,408.5259,809.4844,404.5259,805.4844" style="stroke:#181818;stroke-width:1.0;"/><line style="stroke:#181818;stroke-width:1.0;stroke-dasharray:2.0,2.0;" x1="402.5259" x2="566.2021" y1="805.4844" y2="805.4844"/><text fill="#000000" font-family="sans-serif" font-size="13" lengthAdjust="spacing" textLength="79.5552" x="414.5259" y="800.4185">SyncFrames</text><polygon fill="#181818" points="474.647,830.6172,464.647,834.6172,474.647,838.6172,470.647,834.6172" style="stroke:#181818;stroke-width:1.0;"/><line style="stroke:#181818;stroke-width:1.0;stroke-dasharray:2.0,2.0;" x1="468.647" x2="566.2021" y1="834.6172" y2="834.6172"/><text fill="#000000" font-family="sans-serif" font-size="13" lengthAdjust="spacing" textLength="79.5552" x="480.647" y="829.5513">SyncFrames</text><polygon fill="#181818" points="226.7422,859.75,216.7422,863.75,226.7422,867.75,222.7422,863.75" style="stroke:#181818;stroke-width:1.0;"/><line style="stroke:#181818;stroke-width:1.0;" x1="220.7422" x2="566.2021" y1="863.75" y2="863.75"/><text fill="#000000" font-family="sans-serif" font-size="13" lengthAdjust="spacing" textLength="63.4067" x="232.7422" y="858.6841">GameEnd</text><polygon fill="#181818" points="77.4458,888.8828,67.4458,892.8828,77.4458,896.8828,73.4458,892.8828" style="stroke:#181818;stroke-width:1.0;"/><line style="stroke:#181818;stroke-width:1.0;" x1="71.4458" x2="214.7422" y1="892.8828" y2="892.8828"/><text fill="#000000" font-family="sans-serif" font-size="13" lengthAdjust="spacing" textLength="125.2964" x="83.4458" y="887.8169">HandleGameResult</text><polygon fill="#181818" points="203.7422,918.0156,213.7422,922.0156,203.7422,926.0156,207.7422,922.0156" style="stroke:#181818;stroke-width:1.0;"/><line style="stroke:#181818;stroke-width:1.0;stroke-dasharray:2.0,2.0;" x1="66.4458" x2="209.7422" y1="922.0156" y2="922.0156"/><text fill="#000000" font-family="sans-serif" font-size="13" lengthAdjust="spacing" textLength="37.064" x="73.4458" y="916.9497">result</text><polygon fill="#181818" points="385.5259,947.1484,395.5259,951.1484,385.5259,955.1484,389.5259,951.1484" style="stroke:#181818;stroke-width:1.0;"/><line style="stroke:#181818;stroke-width:1.0;stroke-dasharray:2.0,2.0;" x1="215.7422" x2="391.5259" y1="951.1484" y2="951.1484"/><text fill="#000000" font-family="sans-serif" font-size="13" lengthAdjust="spacing" textLength="110.5444" x="222.7422" y="946.0825">PushGameResult</text><polygon fill="#181818" points="451.647,976.2813,461.647,980.2813,451.647,984.2813,455.647,980.2813" style="stroke:#181818;stroke-width:1.0;"/><line style="stroke:#181818;stroke-width:1.0;stroke-dasharray:2.0,2.0;" x1="215.7422" x2="457.647" y1="980.2813" y2="980.2813"/><text fill="#000000" font-family="sans-serif" font-size="13" lengthAdjust="spacing" textLength="110.5444" x="222.7422" y="975.2153">PushGameResult</text><path d="M158.4282,1002.2813 L311.1099,1002.2813 L311.1099,1009.4141 L301.1099,1019.4141 L158.4282,1019.4141 L158.4282,1002.2813 " fill="#EEEEEE" style="stroke:#000000;stroke-width:1.5;"/><rect fill="none" height="191.9297" style="stroke:#000000;stroke-width:1.5;" width="343.2861" x="158.4282" y="1002.2813"/><text fill="#000000" font-family="sans-serif" font-size="13" font-weight="bold" lengthAdjust="spacing" textLength="107.6816" x="173.4282" y="1015.3481">next_matching</text><polygon fill="#181818" points="226.7422,1036.5469,216.7422,1040.5469,226.7422,1044.5469,222.7422,1040.5469" style="stroke:#181818;stroke-width:1.0;"/><line style="stroke:#181818;stroke-width:1.0;" x1="220.7422" x2="396.5259" y1="1040.5469" y2="1040.5469"/><text fill="#000000" font-family="sans-serif" font-size="13" lengthAdjust="spacing" textLength="40.9424" x="232.7422" y="1035.481">Ready</text><polygon fill="#181818" points="451.647,1065.6797,461.647,1069.6797,451.647,1073.6797,455.647,1069.6797" style="stroke:#181818;stroke-width:1.0;"/><line style="stroke:#181818;stroke-width:1.0;stroke-dasharray:2.0,2.0;" x1="215.7422" x2="457.647" y1="1069.6797" y2="1069.6797"/><text fill="#000000" font-family="sans-serif" font-size="13" lengthAdjust="spacing" textLength="93.9263" x="222.7422" y="1064.6138">Push`A`Ready</text><polygon fill="#181818" points="226.7422,1094.8125,216.7422,1098.8125,226.7422,1102.8125,222.7422,1098.8125" style="stroke:#181818;stroke-width:1.0;"/><line style="stroke:#181818;stroke-width:1.0;" x1="220.7422" x2="462.647" y1="1098.8125" y2="1098.8125"/><text fill="#000000" font-family="sans-serif" font-size="13" lengthAdjust="spacing" textLength="40.9424" x="232.7422" y="1093.7466">Ready</text><polygon fill="#181818" points="385.5259,1123.9453,395.5259,1127.9453,385.5259,1131.9453,389.5259,1127.9453" style="stroke:#181818;stroke-width:1.0;"/><line style="stroke:#181818;stroke-width:1.0;stroke-dasharray:2.0,2.0;" x1="215.7422" x2="391.5259" y1="1127.9453" y2="1127.9453"/><text fill="#000000" font-family="sans-serif" font-size="13" lengthAdjust="spacing" textLength="93.9517" x="222.7422" y="1122.8794">Push`B`Ready</text><polygon fill="#181818" points="226.7422,1153.0781,216.7422,1157.0781,226.7422,1161.0781,222.7422,1157.0781" style="stroke:#181818;stroke-width:1.0;"/><line style="stroke:#181818;stroke-width:1.0;" x1="220.7422" x2="462.647" y1="1157.0781" y2="1157.0781"/><text fill="#000000" font-family="sans-serif" font-size="13" lengthAdjust="spacing" textLength="55.0088" x="232.7422" y="1152.0122">Unready</text><polygon fill="#181818" points="385.5259,1182.2109,395.5259,1186.2109,385.5259,1190.2109,389.5259,1186.2109" style="stroke:#181818;stroke-width:1.0;"/><line style="stroke:#181818;stroke-width:1.0;stroke-dasharray:2.0,2.0;" x1="215.7422" x2="391.5259" y1="1186.2109" y2="1186.2109"/><text fill="#000000" font-family="sans-serif" font-size="13" lengthAdjust="spacing" textLength="108.0181" x="222.7422" y="1181.145">Push`B`Unready</text><!--SRC=[ZPJ1KeCm48RlF4LcEAW7x9s3Cz2fjGTdjDXp6s6bp8G4mrBbxGqfb50WbHCXt-w_VtR9tH6nAFt5ec2KOvMpnrZaYnA-A-0nU4b6Kqbp1pXcM9C841b484yW2Iq7wuvvfHWVUqGlYLi3O-B7eJ4AIPOiKt10cltktVra5Gpsmtux96ug0NYdiQQvKOMnSeMaF0N7IQMe2f8tuXbF7QAUJibxEXVbawK4Yh1kK4sSQ_KKqB8-qNdsMUBCfDZmKuOm6HtwvAqgZorXn8T6V137KA2HPOoiE8Aq5jd8Q633luIjbXwQiHCXbQZVRLgQikcSWHcDNS44JG94EMFO04oH_ioIH1lv4EyLL339l52UCD2BBPGLGviV_RavbdifHAww_M0pDq43JxgHKyCuCN3zYFeap1HzvTooFugFbDgp-Yd1bcG86N_8m7nKyrXJvJmM3h0HTpdnvkEghVpI3VE2w9hIW4PF1dUAr-UJDzjsbMXkvdlAQ1E7NzpVk1wsG9FQbleG77fcFCVpyQs1GsYDtt7vZmmTfSpz0G00]--></g></svg>